<?xml version="1.0" encoding="utf-8"?>
<!-- Generator: Adobe Illustrator 16.0.0, SVG Export Plug-In . SVG Version: 6.00 Build 0)  -->
<!DOCTYPE svg PUBLIC "-//W3C//DTD SVG 1.1//EN" "http://www.w3.org/Graphics/SVG/1.1/DTD/svg11.dtd">
<svg version="1.1" id="圖層_1" xmlns="http://www.w3.org/2000/svg" xmlns:xlink="http://www.w3.org/1999/xlink" x="0px" y="0px"
	 width="28.35px" height="28.35px" viewBox="0 0 28.35 28.35" enable-background="new 0 0 28.35 28.35" xml:space="preserve">
<g>
	<path fill="#040000" d="M10.079,2.85c-2.246,0-4.065,1.818-4.065,4.067c0,2.255,4.065,6.497,4.065,6.497s4.072-4.242,4.072-6.497
		C14.151,4.713,12.332,2.85,10.079,2.85z M10.079,8.736c-1.038,0-1.907-0.864-1.907-1.903c0-1.038,0.869-1.906,1.907-1.906
		s1.907,0.868,1.907,1.906C11.986,7.916,11.117,8.736,10.079,8.736z"/>
	<path fill="#040000" d="M18.007,9.344h-3.639c-0.386,0-0.739,0.346-0.739,0.736s0.353,0.736,0.739,0.736h2.165v13.249H3.625V10.816
		h2.171c0.387,0,0.734-0.346,0.734-0.736S6.184,9.344,5.796,9.344H2.2V25.5h15.807l0,0h5.239c1.601,0,2.903-1.303,2.903-2.905
		v-9.139h-8.143V9.344z M19.954,16.92h2.856v1.475h-2.856V16.92z M19.954,20.518h2.856v1.464h-2.856V20.518z"/>
	<rect x="7.093" y="19.949" fill="#040000" width="1.473" height="2.687"/>
	<rect x="7.093" y="14.539" fill="#040000" width="1.473" height="2.689"/>
	<rect x="11.592" y="19.949" fill="#040000" width="1.479" height="2.687"/>
	<rect x="11.592" y="14.539" fill="#040000" width="1.479" height="2.689"/>
</g>
</svg>
