<?xml version="1.0" encoding="utf-8"?>
<!-- Generator: Adobe Illustrator 16.0.0, SVG Export Plug-In . SVG Version: 6.00 Build 0)  -->
<!DOCTYPE svg PUBLIC "-//W3C//DTD SVG 1.1//EN" "http://www.w3.org/Graphics/SVG/1.1/DTD/svg11.dtd">
<svg version="1.1" id="圖層_1" xmlns="http://www.w3.org/2000/svg" xmlns:xlink="http://www.w3.org/1999/xlink" x="0px" y="0px"
	 width="28.35px" height="28.35px" viewBox="0 0 28.35 28.35" enable-background="new 0 0 28.35 28.35" xml:space="preserve">
<g id="Livello_1_1_">
</g>
<path fill-rule="evenodd" clip-rule="evenodd" d="M9.924,16.509c-2.475,0.786-4.729,1.83-6.809,3.075
	c-1.155,2.271-1.196,4.822-1.308,6.844c8.586,2.153,16.832,2.176,24.734,0c-0.119-2.021-0.153-4.573-1.315-6.844
	c-1.869-1.279-4.133-2.31-6.81-3.075c-0.229,2.433-1.091,5.016-2.48,6.969l-0.88-4.411l0.469-0.35l-0.394-0.723h-1.359l-0.394,0.723
	l0.475,0.35L12.904,23.8C11.537,21.976,10.17,19.072,9.924,16.509L9.924,16.509z M19.18,11.642
	c-0.608,2.299-1.789,4.194-4.381,4.539l0,0c-0.035,0.006-0.194,0.006-0.353,0.006c-0.182,0-0.381,0-0.404,0h-0.006
	c-2.564-0.261-3.849-2.123-4.559-4.399c-0.217-0.093-1.055-0.48-1.284-0.979C8.111,10.624,7.936,9.7,7.901,8.978
	c-0.03-0.568,0.04-1.072,0.321-1.234V7.74c0.094-0.053,0.206-0.082,0.329-0.094C8.164,5.218,8.417,3.559,9.25,2.408
	c2.457-3.392,9.255-2.253,10.499,0.306c0.568,1.167,0.515,2.944,0.287,4.804l-0.089,0.041c0.136,0.006,0.26,0.035,0.364,0.094
	c0.275,0.164,0.353,0.669,0.323,1.241c-0.041,0.718-0.218,1.642-0.3,1.824C20.143,11.145,19.497,11.489,19.18,11.642z"/>
</svg>
